<?xml version="1.0" standalone="no"?>
<!DOCTYPE svg PUBLIC "-//W3C//DTD SVG 20010904//EN"
 "http://www.w3.org/TR/2001/REC-SVG-20010904/DTD/svg10.dtd">
<svg version="1.0" xmlns="http://www.w3.org/2000/svg"
 width="500.000000pt" height="500.000000pt" viewBox="0 0 500.000000 500.000000"
 preserveAspectRatio="xMidYMid meet">

<g transform="translate(0.000000,500.000000) scale(0.100000,-0.100000)"
fill="#000000" stroke="none">
<path d="M2659 4836 c-25 -7 -70 -24 -100 -38 -60 -28 -598 -334 -613 -349 -6
-5 0 -9 17 -9 44 0 150 -44 276 -114 l120 -67 33 17 c18 9 86 48 151 86 201
118 243 132 326 108 94 -27 163 -118 164 -218 0 -69 -25 -123 -82 -175 -42
-38 -57 -42 -185 -52 -43 -3 -108 -16 -143 -27 -36 -12 -209 -104 -386 -205
-298 -169 -326 -183 -372 -183 -82 0 -185 -27 -274 -71 -212 -104 -346 -342
-328 -578 11 -144 75 -279 182 -386 81 -81 160 -125 287 -157 75 -19 92 -20
183 -10 131 14 186 38 470 202 378 218 347 203 439 207 270 9 495 187 567 448
18 65 21 97 16 180 -6 128 -35 215 -104 318 l-53 77 37 48 c104 135 144 316
108 487 -25 117 -76 208 -169 300 -89 88 -170 134 -279 160 -75 18 -225 18
-288 1z m250 -1216 c151 -77 162 -293 20 -387 -33 -21 -57 -28 -108 -31 -72
-4 -99 7 -286 117 -44 26 -102 60 -128 75 l-49 28 114 65 c253 146 267 153
336 153 43 0 75 -6 101 -20z m-966 -406 c18 -9 108 -59 200 -112 135 -76 166
-97 155 -107 -16 -15 -300 -175 -351 -198 -93 -42 -217 -2 -271 86 -35 56 -46
143 -26 202 16 49 66 104 115 126 50 23 136 24 178 3z"/>
<path d="M340 2350 c0 -25 4 -30 24 -30 58 0 56 12 56 -291 l0 -279 -45 -21
c-30 -14 -45 -28 -45 -40 0 -18 10 -19 176 -19 l175 0 -3 28 c-2 20 -9 28 -28
30 -14 1 -35 5 -47 7 l-23 5 0 280 0 280 45 22 c29 14 45 28 43 38 -3 13 -29
15 -166 18 l-162 2 0 -30z"/>
<path d="M3236 2218 l-41 -43 -50 18 c-109 38 -257 -2 -313 -85 -21 -32 -24
-46 -20 -96 5 -66 24 -99 80 -134 l37 -23 -57 -51 c-54 -49 -56 -51 -46 -85 8
-29 15 -35 44 -39 l34 -5 -57 -50 c-31 -27 -57 -58 -57 -68 0 -42 31 -85 83
-113 46 -26 62 -29 142 -29 76 0 99 4 146 27 116 53 173 134 167 234 l-3 49
-90 23 c-49 12 -132 27 -183 34 l-92 11 21 23 c16 17 34 23 87 26 160 9 258
122 209 240 -15 35 -14 36 6 42 12 3 34 6 50 6 31 0 31 -2 16 73 -11 54 -13
57 -42 57 -23 0 -41 -11 -71 -42z m-139 -111 c45 -41 53 -123 17 -175 -12 -17
-25 -22 -59 -22 -36 0 -48 5 -69 31 -21 25 -26 41 -26 88 0 34 6 65 15 78 25
36 82 36 122 0z m-21 -452 c151 -29 170 -43 111 -82 -66 -44 -176 -56 -237
-25 -44 22 -49 50 -15 91 31 36 36 36 141 16z"/>
<path d="M2284 2199 c-28 -4 -84 -19 -125 -32 l-74 -23 2 -50 c1 -28 7 -62 12
-78 10 -25 15 -27 53 -24 l43 3 9 58 c10 62 22 72 82 65 40 -4 64 -54 64 -134
l0 -61 -46 -7 c-26 -3 -73 -6 -106 -6 -66 0 -101 -17 -124 -61 -47 -91 21
-189 131 -189 41 0 60 7 104 36 l53 36 15 -22 c8 -12 29 -30 46 -40 l30 -19
69 35 c58 29 69 39 66 57 -2 18 -9 22 -32 20 -53 -4 -56 4 -56 186 0 183 -3
193 -62 229 -42 26 -90 33 -154 21z m64 -381 c4 -42 -10 -53 -76 -64 -37 -6
-42 -4 -53 19 -21 47 29 89 101 84 21 -2 25 -8 28 -39z"/>
<path d="M952 2185 c-63 -15 -73 -23 -66 -52 5 -17 15 -23 43 -25 l36 -3 3
-182 2 -183 -40 -16 c-27 -11 -40 -22 -40 -35 0 -19 8 -19 148 -17 144 3 147
4 150 25 3 18 -5 27 -32 40 l-36 17 0 148 0 149 47 21 c35 15 53 18 72 12 43
-15 51 -46 51 -205 l0 -147 -30 -12 c-18 -8 -30 -20 -30 -31 0 -18 10 -19 140
-19 l140 0 0 29 c0 25 -6 31 -35 41 l-35 12 0 149 0 150 47 21 c35 15 53 18
72 12 43 -15 51 -46 51 -205 l0 -147 -30 -12 c-18 -8 -30 -20 -30 -31 0 -18
10 -19 145 -19 l145 0 0 28 c0 24 -6 31 -40 45 l-40 15 0 176 0 175 -30 34
c-16 19 -47 39 -70 46 -35 10 -46 9 -85 -8 -24 -11 -64 -33 -88 -50 l-44 -30
-23 31 c-12 16 -42 39 -66 50 -53 23 -78 17 -169 -37 -32 -19 -59 -35 -61 -35
-2 0 -4 10 -4 23 0 13 -10 33 -23 45 -27 25 -64 27 -145 7z"/>
<path d="M3732 2187 c-45 -14 -118 -81 -144 -131 -27 -53 -35 -159 -17 -223
17 -62 96 -143 155 -161 80 -23 134 -16 221 31 76 40 79 43 71 68 l-9 26 -52
-18 c-70 -25 -115 -23 -167 4 -43 23 -71 62 -84 120 l-6 27 143 0 143 0 28 29
c26 27 28 34 22 75 -9 58 -54 118 -108 145 -49 23 -138 27 -196 8z m122 -99
c19 -18 37 -42 40 -54 6 -20 2 -21 -86 -27 -51 -3 -95 -3 -97 -1 -6 6 20 63
41 89 27 34 61 32 102 -7z"/>
<path d="M4382 2187 c-51 -19 -99 -63 -112 -102 -27 -82 13 -142 141 -209 94
-49 109 -63 109 -96 0 -53 -22 -56 -107 -15 -43 20 -86 43 -95 52 -17 15 -20
12 -43 -41 -14 -31 -25 -61 -25 -66 0 -5 26 -19 58 -31 79 -32 210 -33 267 -3
56 29 85 75 85 134 0 70 -28 105 -135 162 -94 50 -125 78 -125 109 0 29 44 52
84 45 31 -6 36 -12 48 -54 12 -43 16 -47 48 -50 46 -5 60 17 60 90 0 49 -3 59
-22 70 -32 17 -195 21 -236 5z"/>
<path d="M1664 1096 c-230 -56 -349 -325 -243 -551 48 -103 154 -172 279 -182
69 -6 76 -4 191 42 l119 49 0 93 0 93 40 6 c36 6 40 10 40 35 l0 29 -164 0
c-158 0 -164 -1 -169 -21 -5 -17 3 -25 49 -45 l54 -24 0 -74 0 -74 -46 -7
c-111 -16 -213 47 -249 154 -27 82 -18 229 18 304 41 83 68 101 139 92 32 -3
75 -12 95 -19 36 -12 39 -17 52 -74 l14 -62 48 0 47 0 11 50 c6 28 11 70 11
93 0 36 -4 45 -29 60 -73 43 -206 57 -307 33z"/>
<path d="M2455 890 c-78 -37 -128 -100 -150 -189 -45 -172 69 -330 238 -331
48 0 71 7 138 41 71 35 80 43 75 62 -3 12 -6 25 -6 29 0 3 -26 -3 -57 -14
-125 -44 -223 3 -248 120 l-7 32 139 0 139 0 33 34 c32 33 33 37 23 76 -25
100 -107 160 -216 160 -39 0 -75 -7 -101 -20z m141 -94 c19 -19 34 -43 34 -54
0 -18 -9 -20 -87 -24 -49 -3 -90 -4 -92 -2 -7 7 20 69 41 91 30 33 64 29 104
-11z"/>
<path d="M3042 895 c-63 -15 -73 -23 -66 -52 5 -17 15 -23 43 -25 l36 -3 3
-182 2 -183 -40 -16 c-27 -11 -40 -22 -40 -35 0 -19 8 -19 148 -17 144 3 147
4 150 25 3 18 -5 27 -33 40 l-35 17 2 150 3 150 48 19 c63 26 97 16 114 -33 7
-20 12 -93 12 -171 l1 -137 -30 -12 c-18 -8 -30 -20 -30 -31 0 -18 10 -19 139
-19 135 0 139 1 145 23 6 24 -12 44 -51 54 -23 5 -23 7 -23 177 0 200 -8 223
-86 258 -44 19 -48 19 -88 4 -23 -9 -67 -32 -97 -51 l-54 -34 -3 27 c-8 67
-59 84 -170 57z"/>
</g>
</svg>
